<?xml version="1.0" encoding="UTF-8" standalone="no"?>
<svg
   xmlns:dc="http://purl.org/dc/elements/1.1/"
   xmlns:cc="http://creativecommons.org/ns#"
   xmlns:rdf="http://www.w3.org/1999/02/22-rdf-syntax-ns#"
   xmlns:svg="http://www.w3.org/2000/svg"
   xmlns="http://www.w3.org/2000/svg"
   version="1.0"
   id="svg2"
   height="128"
   width="128">
  <defs
     id="defs4" />
  <metadata
     id="metadata7">
    <rdf:RDF>
      <cc:Work
         rdf:about="">
        <dc:format>image/svg+xml</dc:format>
        <dc:type
           rdf:resource="http://purl.org/dc/dcmitype/StillImage" />
        <dc:title></dc:title>
      </cc:Work>
    </rdf:RDF>
  </metadata>
  <g
     transform="translate(0,112)"
     id="layer1">
    <path
       id="path2819"
       transform="translate(0,-112)"
       d="M 56,8 C 29.490333,8 8,29.490333 8,56 c 0,26.509667 21.490333,48 48,48 9.162085,0 17.716988,-2.546 25,-7 l 23,23 c 0,0 8,8 16,0 8,-8 0,-16 0,-16 L 97,81 c 4.454,-7.283012 7,-15.837915 7,-25 C 104,29.490333 82.509667,8 56,8 z m 0,16 C 73.673112,24 88,38.326888 88,56 88,73.673112 73.673112,88 56,88 38.326888,88 24,73.673112 24,56 24,38.326888 38.326888,24 56,24 z"
       style="fill:#777777" />
  </g>
</svg>
