<?xml version="1.0" encoding="UTF-8" standalone="no"?>
<svg
   xmlns:dc="http://purl.org/dc/elements/1.1/"
   xmlns:cc="http://creativecommons.org/ns#"
   xmlns:rdf="http://www.w3.org/1999/02/22-rdf-syntax-ns#"
   xmlns:svg="http://www.w3.org/2000/svg"
   xmlns="http://www.w3.org/2000/svg"
   version="1.0"
   id="svg2"
   height="128"
   width="128">
  <defs
     id="defs4" />
  <metadata
     id="metadata7">
    <rdf:RDF>
      <cc:Work
         rdf:about="">
        <dc:format>image/svg+xml</dc:format>
        <dc:type
           rdf:resource="http://purl.org/dc/dcmitype/StillImage" />
        <dc:title></dc:title>
      </cc:Work>
    </rdf:RDF>
  </metadata>
  <g
     transform="translate(0,112)"
     id="layer1">
    <path
       id="path3237"
       transform="translate(0,-112)"
       d="M 64 8 C 33.072053 8 8 33.072053 8 64 C 8 94.927944 33.072053 120 64 120 C 94.927944 120 120 94.927944 120 64 C 120 33.072053 94.927944 8 64 8 z M 32 32 L 40 32 L 64 56 L 88 32 L 96 32 L 96 40 L 72 64 L 96 88 L 96 96 L 88 96 L 64 72 L 40 96 L 32 96 L 32 88 L 56 64 L 32 40 L 32 32 z "
       style="fill:#ffffff;fill-opacity:1" />
  </g>
</svg>
